<svg viewBox="0 0 400 100" xmlns="http://www.w3.org/2000/svg">
  <defs>
    <style>
      @import url('https://fonts.googleapis.com/css2?family=Montserrat:wght@600&amp;display=swap');
      .wordmark { font-family: 'Montserrat', sans-serif; font-weight: 600; letter-spacing: 1.2px; }
    </style>
  </defs>
  <!-- Eye icon (scaled 0.95) -->
  <g transform="scale(0.95)">
    <path d="M 8 50 Q 50 14 92 50 Q 50 86 8 50 Z"
          fill="none" stroke="#ffffff" stroke-width="2" stroke-linejoin="round"/>
    <line x1="8"  y1="50" x2="31" y2="50" stroke="#ffffff" stroke-width="0.8" opacity="0.35"/>
    <line x1="69" y1="50" x2="92" y2="50" stroke="#ffffff" stroke-width="0.8" opacity="0.35"/>
    <circle cx="50" cy="50" r="19" fill="rgba(255,255,255,0.03)" stroke="#ffffff" stroke-width="1.6"/>
    <polygon points="50,54 53.46,52 53.46,48 50,46 46.54,48 46.54,52"
             fill="rgba(255,255,255,0.06)" stroke="#ffffff" stroke-width="0.9"/>
    <polygon points="46.1,47.25 49.56,45.25 49.56,41.25 46.1,39.25 42.64,41.25 42.64,45.25"
             fill="rgba(255,255,255,0.06)" stroke="#ffffff" stroke-width="0.9"/>
    <polygon points="53.9,47.25 57.36,45.25 57.36,41.25 53.9,39.25 50.44,41.25 50.44,45.25"
             fill="rgba(255,255,255,0.06)" stroke="#ffffff" stroke-width="0.9"/>
    <polygon points="42.21,54 45.67,52 45.67,48 42.21,46 38.75,48 38.75,52"
             fill="rgba(255,255,255,0.06)" stroke="#ffffff" stroke-width="0.9"/>
    <polygon points="57.79,54 61.25,52 61.25,48 57.79,46 54.33,48 54.33,52"
             fill="rgba(255,255,255,0.06)" stroke="#ffffff" stroke-width="0.9"/>
    <polygon points="46.1,60.75 49.56,58.75 49.56,54.75 46.1,52.75 42.64,54.75 42.64,58.75"
             fill="rgba(255,255,255,0.06)" stroke="#ffffff" stroke-width="0.9"/>
    <polygon points="53.9,60.75 57.36,58.75 57.36,54.75 53.9,52.75 50.44,54.75 50.44,58.75"
             fill="rgba(255,255,255,0.06)" stroke="#ffffff" stroke-width="0.9"/>
    <circle cx="50" cy="50" r="4.5" fill="#ffffff" opacity="0.92"/>
    <circle cx="50" cy="50" r="2.2" fill="#00bfff" opacity="0.7"/>
  </g>
  <!-- Wordmark -->
  <text x="100" y="62" font-size="36" fill="#ffffff" class="wordmark">Token Sentry</text>
</svg>
