<svg viewBox="0 0 400 100" xmlns="http://www.w3.org/2000/svg">
  <defs>
    <style>
      @import url('https://fonts.googleapis.com/css2?family=Montserrat:wght@600&amp;display=swap');
      .wordmark { font-family: 'Montserrat', sans-serif; font-weight: 600; letter-spacing: 1.2px; }
    </style>
  </defs>
  <!-- Shield (scaled 0.95) -->
  <g transform="scale(0.95)">
    <path d="M 14 16 L 86 16 L 86 58 C 86 80 50 93 50 93 C 50 93 14 80 14 58 Z"
          fill="rgba(216,173,96,0.08)" stroke="#D8AD60" stroke-width="2.5" stroke-linejoin="round"/>
    <polygon points="50,60 56.93,56 56.93,48 50,44 43.07,48 43.07,56"           fill="rgba(216,173,96,0.1)" stroke="#D8AD60" stroke-width="1.3"/>
    <polygon points="42.2,46.5 49.13,42.5 49.13,34.5 42.2,30.5 35.27,34.5 35.27,42.5" fill="rgba(216,173,96,0.1)" stroke="#D8AD60" stroke-width="1.3"/>
    <polygon points="57.8,46.5 64.73,42.5 64.73,34.5 57.8,30.5 50.87,34.5 50.87,42.5" fill="rgba(216,173,96,0.1)" stroke="#D8AD60" stroke-width="1.3"/>
    <polygon points="34.4,60 41.33,56 41.33,48 34.4,44 27.47,48 27.47,56"        fill="rgba(216,173,96,0.1)" stroke="#D8AD60" stroke-width="1.3"/>
    <polygon points="65.6,60 72.53,56 72.53,48 65.6,44 58.67,48 58.67,56"        fill="rgba(216,173,96,0.1)" stroke="#D8AD60" stroke-width="1.3"/>
    <polygon points="42.2,73.5 49.13,69.5 49.13,61.5 42.2,57.5 35.27,61.5 35.27,69.5" fill="rgba(216,173,96,0.1)" stroke="#D8AD60" stroke-width="1.3"/>
    <polygon points="57.8,73.5 64.73,69.5 64.73,61.5 57.8,57.5 50.87,61.5 50.87,69.5" fill="rgba(216,173,96,0.1)" stroke="#D8AD60" stroke-width="1.3"/>
  </g>
  <!-- Wordmark -->
  <text x="100" y="62" font-size="36" fill="#D8AD60" class="wordmark">Token Sentry</text>
</svg>
