<svg xmlns="http://www.w3.org/2000/svg" width="740" height="220" viewBox="0 0 740 220" role="img" aria-label="TokenSentry logo">
  <defs>
    <linearGradient id="ring" x1="0%" y1="0%" x2="100%" y2="100%">
      <stop offset="0%" stop-color="#38BDF8"/>
      <stop offset="100%" stop-color="#22D3EE"/>
    </linearGradient>
    <linearGradient id="shield" x1="0%" y1="0%" x2="100%" y2="100%">
      <stop offset="0%" stop-color="#0F172A"/>
      <stop offset="100%" stop-color="#020617"/>
    </linearGradient>
    <linearGradient id="gold" x1="0%" y1="0%" x2="100%" y2="100%">
      <stop offset="0%" stop-color="#FDE68A"/>
      <stop offset="45%" stop-color="#FBBF24"/>
      <stop offset="100%" stop-color="#B45309"/>
    </linearGradient>
  </defs>
  <rect width="740" height="220" fill="#060A14"/>
  <g transform="translate(20 30)">
    <circle cx="80" cy="80" r="66" fill="none" stroke="url(#ring)" stroke-width="14"/>
    <path d="M80 36 L123 54 V88 C123 119 102 140 80 149 C58 140 37 119 37 88 V54 Z" fill="url(#shield)" stroke="#38BDF8" stroke-width="4"/>
    <path d="M62 84 L74 96 L98 72" fill="none" stroke="#67E8F9" stroke-width="8" stroke-linecap="round" stroke-linejoin="round"/>
  </g>
  <text x="182" y="98" font-family="Verdana, sans-serif" font-size="52" font-weight="700" fill="#E2E8F0">T</text>
  <g transform="translate(221 54)">
    <circle cx="30" cy="30" r="28" fill="url(#gold)" stroke="#FDE68A" stroke-width="2.2"/>
    <circle cx="30" cy="30" r="22" fill="none" stroke="#7C2D12" stroke-opacity="0.35" stroke-width="2"/>
    <text x="30" y="38" text-anchor="middle" font-family="Verdana, sans-serif" font-size="28" font-weight="700" fill="#7C2D12">₿</text>
  </g>
  <text x="273" y="98" font-family="Verdana, sans-serif" font-size="52" font-weight="700" fill="#E2E8F0">ken</text>
  <text x="381" y="98" font-family="Verdana, sans-serif" font-size="52" font-weight="700" fill="#00BFFF">Sentry</text>
  <text x="184" y="142" font-family="Verdana, sans-serif" font-size="20" fill="#94A3B8">Instant on-chain token risk intelligence</text>
</svg>
